<svg width="100" height="100" xmlns="http://www.w3.org/2000/svg">
  <defs>
    <pattern id="snowflake" patternUnits="userSpaceOnUse" width="100" height="100">
      <path d="M 50,0 L 50,100 M 0,50 L 100,50 M 25,25 L 75,75 M 25,75 L 75,25" stroke="#EAD9E9" stroke-width="1"/>
      <path d="M 50,25 L 40,35 M 50,25 L 60,35" stroke="#EAD9E9" stroke-width="1"/>
      <path d="M 50,75 L 40,65 M 50,75 L 60,65" stroke="#EAD9E9" stroke-width="1"/>
      <path d="M 25,50 L 35,40 M 25,50 L 35,60" stroke="#EAD9E9" stroke-width="1"/>
      <path d="M 75,50 L 65,40 M 75,50 L 65,60" stroke="#EAD9E9" stroke-width="1"/>
      <path d="M 35,35 L 30,40 M 35,35 L 40,30" stroke="#EAD9E9" stroke-width="1"/>
      <path d="M 65,65 L 60,70 M 65,65 L 70,60" stroke="#EAD9E9" stroke-width="1"/>
      <path d="M 35,65 L 30,60 M 35,65 L 40,70" stroke="#EAD9E9" stroke-width="1"/>
      <path d="M 65,35 L 60,30 M 65,35 L 70,40" stroke="#EAD9E9" stroke-width="1"/>
    </pattern>
  </defs>
  <rect width="100%" height="100%" fill="url(#snowflake)"/>
</svg>
